<svg xmlns="http://www.w3.org/2000/svg" xmlns:xlink="http://www.w3.org/1999/xlink" width="73" height="69" viewBox="0 0 73 69"><defs><style>.a,.c{fill:#4b4b4b;}.a{stroke:#707070;}.b{clip-path:url(#a);}</style><clipPath id="a"><rect class="a" width="73" height="69" transform="translate(36 664)"/></clipPath></defs><g class="b" transform="translate(-36 -664)"><g transform="translate(38 664)"><path class="c" d="M38.044,57.343H31.373c-8.27,0-15-6.211-15-13.846a1.662,1.662,0,0,1,1.661-1.662h33.35A1.662,1.662,0,0,1,53.044,43.5C53.045,51.131,46.315,57.343,38.044,57.343Zm-18.2-12.184c.887,5.015,5.721,8.861,11.533,8.861h6.67c5.813,0,10.648-3.846,11.535-8.861Z"/><path class="c" d="M49.839,25.458a3.972,3.972,0,1,1-3.972-3.972A3.972,3.972,0,0,1,49.839,25.458Z"/><path class="c" d="M27,25.458a3.971,3.971,0,1,1-3.971-3.972A3.971,3.971,0,0,1,27,25.458Z"/><path class="c" d="M34.5,69A34.5,34.5,0,1,1,68.992,34.5,34.535,34.535,0,0,1,34.5,69Zm0-65.677A31.177,31.177,0,1,0,65.67,34.5,31.208,31.208,0,0,0,34.5,3.323Z"/></g></g></svg>