<svg xmlns="http://www.w3.org/2000/svg" xmlns:xlink="http://www.w3.org/1999/xlink" width="73" height="69" viewBox="0 0 73 69"><defs><style>.a{fill:#4b4b4b;}.b{clip-path:url(#a);}</style><clipPath id="a"><rect class="a" width="73" height="69" transform="translate(151 664)"/></clipPath></defs><g class="b" transform="translate(-151 -664)"><g transform="translate(153 664)"><path class="a" d="M50.7,48.481H19.7a1.662,1.662,0,0,1,0-3.323H50.7a1.662,1.662,0,0,1,0,3.323Z"/><path class="a" d="M49.839,25.458a3.972,3.972,0,1,1-3.972-3.972A3.972,3.972,0,0,1,49.839,25.458Z"/><path class="a" d="M27,25.458a3.971,3.971,0,1,1-3.971-3.972A3.972,3.972,0,0,1,27,25.458Z"/><path class="a" d="M34.5,69A34.5,34.5,0,1,1,68.992,34.5,34.534,34.534,0,0,1,34.5,69Zm0-65.677A31.177,31.177,0,1,0,65.67,34.5,31.209,31.209,0,0,0,34.5,3.323Z"/></g></g></svg>